<svg xmlns="http://www.w3.org/2000/svg" viewBox="0 0 444.17 121.56">
  <title>yndlings</title>
  <g id="Layer_2" data-name="Layer 2">
    <g id="Layer_1-2" data-name="Layer 1">
      <path d="M271.81,8c-.08-5-6.8-7.31-12.07.28,0,0,2.6-6.45-5-8.09-9.25-2-6.38,11.47-4.23,27.21,0,0,21.42-10.06,21.27-19.4" fill="#e51c4a"/>
      <path d="M37.64,57.84,34.06,87.5l10.42,1.28s0,1-.11,2.2c-.13.81-.35,2.08-.35,2.08S30.35,93,26.06,93s-17.14.11-17.14.11a11,11,0,0,1,0-2.08,10.69,10.69,0,0,1,.47-2.2l10-1.16L22.82,59,6.6,21.59,0,20.2s0-.7.11-1.74S.57,16,.57,16s10.2.11,14.49.11S30.81,16,30.81,16s0,1.39-.11,2.43a9.7,9.7,0,0,1-.35,1.74l-7.88,1.27L35.91,52.05,55.14,22.63l-9.73-2.54a14.14,14.14,0,0,1,.12-1.63A11.21,11.21,0,0,1,46,15.92s8,.22,12.39.22c4.17,0,11.35-.11,11.35-.11s0,1.28-.11,2.43c-.12.93-.24,1.51-.24,1.51L61,22.87Z" fill="#fff"/>
      <path d="M111.46,34.1a9,9,0,0,1,8.93,9.15c0,1.39-1.4,9.85-7.89,42.4-.23,1.38.35,1.85,1.4,1.85,2.66,0,6.49-4.86,8.11-7.3a5.34,5.34,0,0,1,3.23,2.2C120,89.47,114,94,107.76,94c-9,0-9.74-4.87-9.27-8,1.5-8,5.91-30.12,7.29-38.12,1-5.2,1.4-7.06-.34-7.18-5.67,0-20.74,21.78-22.47,33L80,92.36a42.88,42.88,0,0,1-9.26.7h-5l5.79-30.7c1.39-7.41,1.85-10,2.55-14.83.46-3.7,1-6.94-.93-6.94-1.73,0-4.63,1-7.87,3.13a6.75,6.75,0,0,1-1.74-3.25C66.63,38.16,75.91,34,83.32,34c2.55,0,5.79,1.15,5.79,4.63,0,1.39-2.32,9.85-5.1,22.59,7.06-15.76,17.15-27.11,27.45-27.11" fill="#fff"/>
      <path d="M168.6,62.36l3.94-18.87a14.36,14.36,0,0,0-10.42-4.76c-11.7,0-15.64,26.88-15.64,41.24,0,5.1.58,9.15,2.66,9.15,4.76,0,15.64-15.4,19.46-26.76M167.79,73c-5,10.43-12.62,21-22.46,21-13.21,0-14.14-13-14.14-20.39,0-16.68,12.4-39.61,30.23-39.61,4.06,0,8.58,2,12.05,5,.24-1.74,3.36-17.61,3.82-19.81l1.16-6.37-10-.47a7.91,7.91,0,0,1-.35-3.47l26.18-4.64c-7.76,39.62-10,51.21-15.76,81.33-.22,1.49.47,2,1.51,2,3,0,7.07-4.86,8.69-7.42a6.92,6.92,0,0,1,3.36,2.21c-5.33,7.18-11.35,11.7-17.6,11.7-9,0-9.28-5-8.81-8,.34-2.55,1.62-10.42,2.08-13" fill="#fff"/>
      <path d="M212.31,85.54c-.35,1.5.35,2,1.27,2,2.78,0,6.61-4.86,8.12-7.42a6.89,6.89,0,0,1,3.35,2.21C219.72,89.47,213.7,94,207.44,94c-9,0-9.72-5-9.14-8l12.5-66.84,1-6.37-10-.47a7.92,7.92,0,0,1-.35-3.47l26.18-4.64Z" fill="#fff"/>
      <path d="M257.51,39.08c-.13,1.85-2.32,14.83-8.69,46.46-.24,1.49.34,1.84,1.39,1.84,2.66,0,6.49-4.74,8.11-7.3a6.76,6.76,0,0,1,3.36,2.21C256.35,89.35,250.32,94,244.07,94c-9,0-9.74-5-9.26-8,1.49-8.11,6-30.24,7.52-38.47.7-3.7,1.16-6.83-.81-6.83-1.73,0-4.63,1-7.88,3a7,7,0,0,1-1.73-3.13C235,38.27,244.42,34,251.59,34c3.13,0,6,1.73,5.92,5.09" fill="#fff"/>
      <path d="M317.06,34.1A9,9,0,0,1,326,43.25c0,1.39-1.39,9.85-7.88,42.4-.23,1.38.35,1.85,1.39,1.85,2.66,0,6.49-4.86,8.11-7.3a5.39,5.39,0,0,1,3.24,2.2C325.64,89.47,319.61,94,313.35,94c-9,0-9.73-4.87-9.27-8,1.51-8,5.92-30.12,7.3-38.12,1.05-5.2,1.4-7.06-.35-7.18-5.66,0-20.73,21.78-22.46,33l-3,18.64a42.88,42.88,0,0,1-9.26.7h-5l5.79-30.7c1.38-7.41,1.85-10,2.55-14.83.46-3.7,1-6.94-.93-6.94-1.73,0-4.63,1-7.88,3.13a6.81,6.81,0,0,1-1.73-3.25C272.23,38.16,281.5,34,288.92,34c2.54,0,5.79,1.15,5.79,4.63,0,1.39-2.32,9.85-5.1,22.59,7.06-15.76,17.14-27.11,27.45-27.11" fill="#fff"/>
      <path d="M375.08,62.36l4.06-18.65a14.37,14.37,0,0,0-10.53-4.86C356.09,38.85,353,65.49,353,80c0,5.33.69,9.15,2.77,9.15,5.1,0,15.76-15.86,19.34-26.76m8-27.45a48.81,48.81,0,0,1,12.05-1.39C390.38,58,389.69,61.9,384.47,89.59c-3,18.06-15.05,32-33.24,32-10.78,0-20.39-4.29-20.39-11.82,0-5.32,5-11.7,13.44-12.4a37.41,37.41,0,0,1-4.52,17.85,37.94,37.94,0,0,0,11.59,2.31c10,0,15.51-6,18.07-19.22L374.27,73c-4.39,10.31-13.43,21-22,21-13.21,0-14.59-12.62-14.59-20,0-16.68,11-40,30.23-40,4.17,0,8.57,2.08,12.63,5.44Z" fill="#fff"/>
      <path d="M427.48,82.06c0-13.09-21.89-17-21.89-30.35,0-12.86,12.28-17.72,22.47-17.72,7.88,0,16.11,5.21,16.11,10.31,0,5.55-4.17,9.15-10.79,9.15-.22-5.1.24-8.57,3.13-13.55a18.37,18.37,0,0,0-8.68-2.09c-5.56,0-10,1.85-10,7.07,0,12.5,22.47,16.1,22.47,30.92,0,11.47-11.94,18.54-24.55,18.54-7.54,0-16.69-4.87-16.69-10.31s4.29-9,10.89-9.15c.23,5.2-.81,8.57-3.59,13.55,2.09,1.27,6.37,2.2,9.39,2.2,8.79,0,11.69-4.17,11.69-8.57" fill="#fff"/>
    </g>
  </g>
</svg>
